{
  "accessors": [
    {
      "bufferView": 1,
      "componentType": 5126,
      "count": 4,
      "max": [
        63.74078369140625,
        1023.7407836914062,
        -868
      ],
      "min": [
        -1983.74072265625,
        -1023.7407836914062,
        -868
      ],
      "type": "VEC3"
    },
    {
      "bufferView": 1,
      "byteOffset": 48,
      "componentType": 5126,
      "count": 4,
      "max": [
        -0,
        -0,
        1
      ],
      "min": [
        -0,
        -0,
        1
      ],
      "type": "VEC3"
    },
    {
      "bufferView": 2,
      "componentType": 5126,
      "count": 4,
      "max": [
        -1,
        0,
        0,
        1
      ],
      "min": [
        -1,
        0,
        0,
        1
      ],
      "type": "VEC4"
    },
    {
      "bufferView": 0,
      "componentType": 5125,
      "count": 6,
      "max": [
        3
      ],
      "min": [
        0
      ],
      "type": "SCALAR"
    },
    {
      "bufferView": 1,
      "byteOffset": 96,
      "componentType": 5126,
      "count": 881,
      "max": [
        -434.52484130859375,
        237.49229431152344,
        357.37396240234375
      ],
      "min": [
        -959.901123046875,
        42.507705688476562,
        -863.75921630859375
      ],
      "type": "VEC3"
    },
    {
      "bufferView": 1,
      "byteOffset": 10668,
      "componentType": 5126,
      "count": 881,
      "max": [
        1,
        1,
        1
      ],
      "min": [
        -1,
        -1,
        -1
      ],
      "type": "VEC3"
    },
    {
      "bufferView": 2,
      "byteOffset": 64,
      "componentType": 5126,
      "count": 881,
      "max": [
        0.8741995096206665,
        0.62853217124938965,
        0.37260645627975464,
        1
      ],
      "min": [
        -1,
        -1,
        -0.23307780921459198,
        -1
      ],
      "type": "VEC4"
    },
    {
      "bufferView": 0,
      "byteOffset": 24,
      "componentType": 5125,
      "count": 2028,
      "max": [
        880
      ],
      "min": [
        0
      ],
      "type": "SCALAR"
    },
    {
      "bufferView": 1,
      "byteOffset": 21240,
      "componentType": 5126,
      "count": 3294,
      "max": [
        -520.9925537109375,
        237.49229431152344,
        240.105224609375
      ],
      "min": [
        -1442.7340087890625,
        42.507705688476562,
        -863.75921630859375
      ],
      "type": "VEC3"
    },
    {
      "bufferView": 1,
      "byteOffset": 60768,
      "componentType": 5126,
      "count": 3294,
      "max": [
        0.99999946355819702,
        1,
        1
      ],
      "min": [
        -1,
        -1,
        -1
      ],
      "type": "VEC3"
    },
    {
      "bufferView": 2,
      "byteOffset": 14160,
      "componentType": 5126,
      "count": 3294,
      "max": [
        0.87419605255126953,
        0.6725393533706665,
        0.73206305503845215,
        1
      ],
      "min": [
        -1,
        -1,
        -0.72625714540481567,
        -1
      ],
      "type": "VEC4"
    },
    {
      "bufferView": 0,
      "byteOffset": 8136,
      "componentType": 5125,
      "count": 14028,
      "max": [
        3293
      ],
      "min": [
        0
      ],
      "type": "SCALAR"
    },
    {
      "bufferView": 1,
      "byteOffset": 100296,
      "componentType": 5126,
      "count": 3472,
      "max": [
        -635.2235107421875,
        237.49229431152344,
        274.16229248046875
      ],
      "min": [
        -1180.019287109375,
        42.507705688476562,
        -863.75921630859375
      ],
      "type": "VEC3"
    },
    {
      "bufferView": 1,
      "byteOffset": 141960,
      "componentType": 5126,
      "count": 3472,
      "max": [
        1,
        1,
        1
      ],
      "min": [
        -1,
        -1,
        -1
      ],
      "type": "VEC3"
    },
    {
      "bufferView": 2,
      "byteOffset": 66864,
      "componentType": 5126,
      "count": 3472,
      "max": [
        0.87419033050537109,
        0.69763106107711792,
        0.72727316617965698,
        1
      ],
      "min": [
        -1,
        -1,
        -0.72738194465637207,
        -1
      ],
      "type": "VEC4"
    },
    {
      "bufferView": 0,
      "byteOffset": 64248,
      "componentType": 5125,
      "count": 15204,
      "max": [
        3471
      ],
      "min": [
        0
      ],
      "type": "SCALAR"
    },
    {
      "bufferView": 1,
      "byteOffset": 183624,
      "componentType": 5126,
      "count": 5320,
      "max": [
        -412.29949951171875,
        237.49229431152344,
        207.22787475585938
      ],
      "min": [
        -1507.700439453125,
        42.507705688476562,
        -488.34814453125
      ],
      "type": "VEC3"
    },
    {
      "bufferView": 1,
      "byteOffset": 247464,
      "componentType": 5126,
      "count": 5320,
      "max": [
        1,
        1,
        0.99993002414703369
      ],
      "min": [
        -0.99998587369918823,
        -1,
        -0.99995410442352295
      ],
      "type": "VEC3"
    },
    {
      "bufferView": 2,
      "byteOffset": 122416,
      "componentType": 5126,
      "count": 5320,
      "max": [
        0.88658177852630615,
        0.68053245544433594,
        0.74474412202835083,
        1
      ],
      "min": [
        -1,
        -1,
        -0.86515504121780396,
        -1
      ],
      "type": "VEC4"
    },
    {
      "bufferView": 0,
      "byteOffset": 125064,
      "componentType": 5125,
      "count": 19230,
      "max": [
        5319
      ],
      "min": [
        0
      ],
      "type": "SCALAR"
    },
    {
      "bufferView": 1,
      "byteOffset": 311304,
      "componentType": 5126,
      "count": 444,
      "max": [
        -424.2840576171875,
        193.79183959960938,
        -326.85797119140625
      ],
      "min": [
        -1452.974853515625,
        44.721710205078125,
        -874
      ],
      "type": "VEC3"
    },
    {
      "bufferView": 1,
      "byteOffset": 316632,
      "componentType": 5126,
      "count": 444,
      "max": [
        1,
        1,
        1
      ],
      "min": [
        -1,
        -1,
        -1
      ],
      "type": "VEC3"
    },
    {
      "bufferView": 2,
      "byteOffset": 207536,
      "componentType": 5126,
      "count": 444,
      "max": [
        0.93185693025588989,
        0.36286255717277527,
        0.0028087117243558168,
        1
      ],
      "min": [
        -1,
        -1,
        -0.015251997858285904,
        -1
      ],
      "type": "VEC4"
    },
    {
      "bufferView": 0,
      "byteOffset": 201984,
      "componentType": 5125,
      "count": 1032,
      "max": [
        443
      ],
      "min": [
        0
      ],
      "type": "SCALAR"
    },
    {
      "bufferView": 1,
      "byteOffset": 321960,
      "componentType": 5126,
      "count": 4694,
      "max": [
        -402.05877685546875,
        193.79183959960938,
        -63.003448486328125
      ],
      "min": [
        -1517.941162109375,
        44.721710205078125,
        -498.5892333984375
      ],
      "type": "VEC3"
    },
    {
      "bufferView": 1,
      "byteOffset": 378288,
      "componentType": 5126,
      "count": 4694,
      "max": [
        1,
        1,
        0.99413198232650757
      ],
      "min": [
        -0.98675954341888428,
        -1,
        -0.99980264902114868
      ],
      "type": "VEC3"
    },
    {
      "bufferView": 2,
      "byteOffset": 214640,
      "componentType": 5126,
      "count": 4694,
      "max": [
        0.9349675178527832,
        0.70877528190612793,
        0.73200613260269165,
        1
      ],
      "min": [
        -1,
        -1,
        -0.71043390035629272,
        -1
      ],
      "type": "VEC4"
    },
    {
      "bufferView": 0,
      "byteOffset": 206112,
      "componentType": 5125,
      "count": 19440,
      "max": [
        4693
      ],
      "min": [
        0
      ],
      "type": "SCALAR"
    }
  ],
  "asset": {
    "extras": {
      "author": "jlwande2 (https://sketchfab.com/jlwande2)",
      "license": "CC-BY-4.0 (http://creativecommons.org/licenses/by/4.0/)",
      "source": "https://sketchfab.com/models/4f2849bbf56347ce916c37cb9010f517",
      "title": "3D Graph"
    },
    "generator": "Sketchfab-3.22.13",
    "version": "2.0"
  },
  "bufferViews": [
    {
      "buffer": 0,
      "byteLength": 283872,
      "byteOffset": 0,
      "name": "floatBufferViews",
      "target": 34963
    },
    {
      "buffer": 0,
      "byteLength": 434616,
      "byteOffset": 283872,
      "byteStride": 12,
      "name": "floatBufferViews",
      "target": 34962
    },
    {
      "buffer": 0,
      "byteLength": 289744,
      "byteOffset": 718488,
      "byteStride": 16,
      "name": "floatBufferViews",
      "target": 34962
    }
  ],
  "buffers": [
    {
      "byteLength": 1008232,
      "uri": "scene.bin"
    }
  ],
  "extensionsRequired": [
    "KHR_materials_pbrSpecularGlossiness"
  ],
  "extensionsUsed": [
    "KHR_materials_pbrSpecularGlossiness"
  ],
  "materials": [
    {
      "doubleSided": true,
      "emissiveFactor": [
        0,
        0,
        0
      ],
      "extensions": {
        "KHR_materials_pbrSpecularGlossiness": {
          "diffuseFactor": [
            0.59956207689999996,
            0.68787540039999995,
            0.75511859749999999,
            1
          ],
          "glossinessFactor": 0.53503787879999998,
          "specularFactor": [
            1,
            1,
            1
          ]
        }
      },
      "name": "Default"
    },
    {
      "doubleSided": true,
      "emissiveFactor": [
        0,
        0,
        0
      ],
      "extensions": {
        "KHR_materials_pbrSpecularGlossiness": {
          "diffuseFactor": [
            1,
            0,
            0,
            1
          ],
          "glossinessFactor": 1,
          "specularFactor": [
            1,
            1,
            1
          ]
        }
      },
      "name": "Gold_Basic"
    },
    {
      "doubleSided": true,
      "emissiveFactor": [
        0,
        0,
        0
      ],
      "extensions": {
        "KHR_materials_pbrSpecularGlossiness": {
          "diffuseFactor": [
            1,
            1,
            1,
            1
          ],
          "glossinessFactor": 1,
          "specularFactor": [
            1,
            1,
            1
          ]
        }
      },
      "name": "White_Shiny"
    }
  ],
  "meshes": [
    {
      "primitives": [
        {
          "attributes": {
            "NORMAL": 1,
            "POSITION": 0,
            "TANGENT": 2
          },
          "indices": 3,
          "material": 0,
          "mode": 4
        }
      ]
    },
    {
      "primitives": [
        {
          "attributes": {
            "NORMAL": 5,
            "POSITION": 4,
            "TANGENT": 6
          },
          "indices": 7,
          "material": 1,
          "mode": 4
        }
      ]
    },
    {
      "primitives": [
        {
          "attributes": {
            "NORMAL": 9,
            "POSITION": 8,
            "TANGENT": 10
          },
          "indices": 11,
          "material": 1,
          "mode": 4
        }
      ]
    },
    {
      "primitives": [
        {
          "attributes": {
            "NORMAL": 13,
            "POSITION": 12,
            "TANGENT": 14
          },
          "indices": 15,
          "material": 1,
          "mode": 4
        }
      ]
    },
    {
      "primitives": [
        {
          "attributes": {
            "NORMAL": 17,
            "POSITION": 16,
            "TANGENT": 18
          },
          "indices": 19,
          "material": 1,
          "mode": 4
        }
      ]
    },
    {
      "primitives": [
        {
          "attributes": {
            "NORMAL": 21,
            "POSITION": 20,
            "TANGENT": 22
          },
          "indices": 23,
          "material": 2,
          "mode": 4
        }
      ]
    },
    {
      "primitives": [
        {
          "attributes": {
            "NORMAL": 25,
            "POSITION": 24,
            "TANGENT": 26
          },
          "indices": 27,
          "material": 2,
          "mode": 4
        }
      ]
    }
  ],
  "nodes": [
    {
      "children": [
        1
      ],
      "name": "RootNode (gltf orientation matrix)",
      "rotation": [
        -0.70710678118654746,
        -0,
        -0,
        0.70710678118654757
      ]
    },
    {
      "children": [
        2
      ],
      "name": "RootNode (model correction matrix)"
    },
    {
      "children": [
        3,
        4,
        5,
        6,
        7,
        8,
        9
      ],
      "name": "graph.obj.cleaner.materialmerger.gles"
    },
    {
      "mesh": 0,
      "name": ""
    },
    {
      "mesh": 1,
      "name": ""
    },
    {
      "mesh": 2,
      "name": ""
    },
    {
      "mesh": 3,
      "name": ""
    },
    {
      "mesh": 4,
      "name": ""
    },
    {
      "mesh": 5,
      "name": ""
    },
    {
      "mesh": 6,
      "name": ""
    }
  ],
  "scene": 0,
  "scenes": [
    {
      "name": "OSG_Scene",
      "nodes": [
        0
      ]
    }
  ]
}

